<?xml version="1.0" encoding="utf-8"?>
<!-- Generator: Adobe Illustrator 19.1.0, SVG Export Plug-In . SVG Version: 6.00 Build 0)  -->
<svg version="1.1" id="Layer_1" xmlns="http://www.w3.org/2000/svg" xmlns:xlink="http://www.w3.org/1999/xlink" x="0px" y="0px"
	 viewBox="0 0 100 99.4" style="enable-background:new 0 0 100 99.4;" xml:space="preserve">
<style type="text/css">
	.st0{fill:#FFFFFF;}
	.st1{fill:#F58020;}
	.st2{fill:#404040;stroke:#000000;stroke-miterlimit:10;}
</style>
<symbol  id="New_Symbol_1" viewBox="-7.7 -7.3 15.5 14.6">
	<path class="st0" d="M0.8-2.1l-2.6,2.6c0,0,2.3,0.9,3,1.7C2.1,3,6,6.9,6,6.9s0.8,0.8,1.4,0.1c0.6-0.6-0.1-1.4-0.1-1.4s-4-4-4.7-4.7
		C1.8,0.1,0.8-2.1,0.8-2.1z"/>
	<path class="st0" d="M-7.7-7.1c2,0.5,1.8,2.1,3,5c0.6,1.4,2.2,1.8,2.2,1.8l2.6-2.6C0.1-2.9,0.1-8.5-7.7-7.1z"/>
</symbol>
<g>
	<circle class="st1" cx="50" cy="50" r="50"/>
</g>
<path class="st2" d="M50,82.5H31.5V43.8l-12.3,7.3l-9.7-15L37.9,19c0,0-0.2,8.5,12.6,8.9"/>
<path class="st2" d="M49.9,82.4l18.4,0.3l0.7-38.6l12.2,7.5l9.9-14.8L63.1,19.2c0,0,0.1,8.5-12.7,8.6"/>
<use xlink:href="#New_Symbol_1"  width="15.5" height="14.6" id="XMLID_2_" x="-7.7" y="-7.3" transform="matrix(2.8918 0 0 -2.8918 61.651 44.8011)" style="overflow:visible;"/>
</svg>


